<?xml version="1.0" encoding="UTF-8"?>
<svg xmlns="http://www.w3.org/2000/svg" xmlns:xlink="http://www.w3.org/1999/xlink" width="500pt" height="500pt" viewBox="0 0 500 500" version="1.1">
<g id="surface14801461">
<path style=" stroke:none;fill-rule:nonzero;fill:rgb(100%,100%,100%);fill-opacity:1;" d="M 250 120 C 185.078125 120 126.210938 133.59375 82.734375 156.289062 C 39.257812 178.984375 10 211.679688 10 250 C 10 288.320312 39.257812 321.015625 82.734375 343.710938 C 126.210938 366.40625 185.078125 380 250 380 C 314.921875 380 373.789062 366.40625 417.265625 343.710938 C 460.742188 321.015625 490 288.320312 490 250 C 490 211.679688 460.742188 178.984375 417.265625 156.289062 C 373.789062 133.59375 314.921875 120 250 120 Z M 250 140 C 312.109375 140 368.242188 153.242188 408.007812 174.023438 C 447.773438 194.765625 470 222.03125 470 250 C 470 277.96875 447.773438 305.234375 408.007812 325.976562 C 368.242188 346.757812 312.109375 360 250 360 C 187.890625 360 131.757812 346.757812 91.992188 325.976562 C 52.226562 305.234375 30 277.96875 30 250 C 30 222.03125 52.226562 194.765625 91.992188 174.023438 C 131.757812 153.242188 187.890625 140 250 140 Z M 225.078125 160 L 200 280 L 226.25 280 L 238.90625 220 L 259.882812 220 C 266.5625 220 271.015625 221.09375 273.085938 223.320312 C 275.117188 225.546875 275.546875 229.765625 274.375 235.820312 L 264.804688 280 L 291.445312 280 L 301.835938 232.226562 C 304.0625 220.78125 302.382812 212.382812 296.835938 207.265625 C 291.171875 202.070312 281.210938 200 266.367188 200 L 242.96875 200 L 251.289062 160 Z M 110 200 L 89.726562 310 L 116.171875 310 L 121.445312 280 L 137.929688 280 C 172.382812 280 191.132812 272.03125 198.125 242.460938 C 204.140625 217.03125 188.75 200 163.320312 200 Z M 320 200 L 299.726562 310 L 326.171875 310 L 331.445312 280 L 347.929688 280 C 382.382812 280 401.132812 272.03125 408.125 242.460938 C 414.140625 217.03125 398.75 200 373.320312 200 Z M 132.734375 220 L 153.320312 220 C 170.429688 220 174.023438 227.695312 173.125 236.25 C 170.820312 258.320312 157.070312 260 142.304688 260 L 125.15625 260 Z M 342.734375 220 L 363.320312 220 C 380.429688 220 384.023438 227.695312 383.125 236.25 C 380.820312 258.320312 367.070312 260 352.304688 260 L 335.15625 260 Z M 342.734375 220 "/>
</g>
</svg>
